<svg width="30" height="31" viewBox="0 0 30 31" fill="none" xmlns="http://www.w3.org/2000/svg">
<g clip-path="url(#clip0_2_29)">
<path d="M30 30.0068C30 30.3791 29.8957 30.5031 29.5173 30.4999C27.7463 30.4836 25.9752 30.4803 24.2042 30.4999C23.7998 30.5031 23.6987 30.3562 23.7019 29.9742C23.7117 26.6895 23.7248 23.4048 23.6954 20.1201C23.6889 19.2809 23.6139 18.4255 23.4247 17.6092C23.1018 16.2117 22.1592 15.513 20.7208 15.4966C20.2577 15.4901 19.7782 15.5097 19.3314 15.6207C17.8865 15.9832 17.2701 17.077 17.032 18.4287C16.9146 19.0785 16.8722 19.7478 16.8689 20.4074C16.8526 23.6007 16.8559 26.794 16.8722 29.9873C16.8722 30.3856 16.7646 30.5031 16.3699 30.4999C14.5989 30.4803 12.8246 30.4803 11.0536 30.4999C10.6524 30.5031 10.5513 30.3693 10.5513 29.9807C10.5643 23.6333 10.5643 17.286 10.5545 10.9386C10.5513 10.55 10.6459 10.4194 11.0503 10.4259C12.7561 10.4488 14.4652 10.4455 16.171 10.4259C16.5428 10.4227 16.6374 10.55 16.6276 10.8994C16.608 11.6145 16.6211 12.3295 16.6211 13.1622C17.5963 11.6275 18.8455 10.6186 20.4893 10.1909C22.4886 9.66847 24.4684 9.83499 26.3536 10.6774C28.2519 11.5296 29.139 13.1752 29.5956 15.1082C29.9283 16.522 30.0033 17.9619 29.9968 19.4083C29.9903 22.9412 29.987 26.4741 30.0001 30.0069L30 30.0068Z" fill="black"/>
<path d="M6.77429 20.4336V29.971C6.77429 30.4869 6.77103 30.4901 6.25244 30.4901C4.4814 30.4934 2.71036 30.4869 0.939325 30.4967C0.600121 30.4999 0.463135 30.4183 0.463135 30.0396C0.476181 23.653 0.476181 17.2697 0.463135 10.8864C0.463135 10.5207 0.574028 10.426 0.92954 10.4292C2.72667 10.4423 4.52054 10.4456 6.31767 10.426C6.68297 10.4227 6.78081 10.5402 6.78081 10.8929C6.76777 14.0731 6.77429 17.2533 6.77429 20.4336Z" fill="black"/>
<path d="M7.25049 4.14714C7.24723 6.15193 5.63927 7.7551 3.62688 7.7551C1.61122 7.75836 0.00326656 6.16172 4.98329e-06 4.15694C-0.0032566 2.11624 1.59492 0.503265 3.6171 0.5C5.63601 0.5 7.25049 2.12277 7.25049 4.14714Z" fill="black"/>
</g>
<defs>
<clipPath id="clip0_2_29">
<rect width="30" height="30" fill="white" transform="translate(0 0.5)"/>
</clipPath>
</defs>
</svg>
