<svg width="173" height="68" viewBox="0 0 173 68" fill="none" xmlns="http://www.w3.org/2000/svg">
<g clip-path="url(#clip0_504_50)">
<path d="M0 16.2718C0 8.02235 4.85569 3.18774 11.3555 3.18774C14.6821 3.18774 16.9377 4.76094 18.429 6.33409L15.982 9.09666C14.8348 7.90728 13.535 7.06303 11.3555 7.06303C7.37913 7.06303 4.58801 10.5163 4.58801 16.1567C4.58801 21.8738 6.9969 25.3271 11.4321 25.3271C12.7703 25.3271 14.0702 24.9433 14.7966 24.2144V18.8042H10.4761V15.1592H18.8112V26.2096C17.2055 27.821 14.376 29.2024 11.1644 29.2024C4.81742 29.2024 0 24.5979 0 16.2718Z" fill="#121212"/>
<path d="M48.5671 55.4911V59.2489H32.4337V34.1584L32.4613 28.7431V13.3953H24.3177V9.90247H36.8563V28.7431L36.8287 34.1584V55.4911H48.5671Z" fill="#121212"/>
<path d="M37.4712 3.49441C37.4712 5.29817 36.131 6.44926 34.3336 6.44926C32.5362 6.44926 31.2 5.29817 31.2 3.49441C31.2 1.7302 32.5362 0.5 34.3336 0.5C36.131 0.5 37.4712 1.7302 37.4712 3.49441V3.49441Z" fill="#B00020"/>
<path d="M46.7601 23.677C46.7601 19.4564 50.4688 17.346 59.7215 16.6938C59.5685 14.5835 58.3069 13.0103 55.2481 13.0103C53.1452 13.0103 51.0423 13.9312 49.0924 15.0055L47.4865 12.0511C49.7424 10.7082 52.8394 9.44189 56.051 9.44189C61.2509 9.44189 64.1186 12.3196 64.1186 17.5762V28.7418H60.5245L60.1804 26.4013H60.0657C58.0775 27.936 55.5541 29.2023 53.0305 29.2023C49.36 29.2023 46.7602 26.9769 46.7602 23.677H46.7601ZM59.7215 23.4467V19.4564C52.9923 19.9168 51.004 21.2982 51.004 23.3316C51.004 25.0199 52.4952 25.749 54.3687 25.749C56.2421 25.749 58.0011 24.8281 59.7215 23.4467V23.4467Z" fill="#121212"/>
<path d="M69.7769 19.3412C69.7769 13.0487 74.7092 9.44189 80.4443 9.44189C83.4648 9.44189 85.8354 10.5931 87.4029 12.0894L85.3 14.8519C83.847 13.6625 82.356 13.0487 80.6737 13.0487C76.9267 13.0487 74.3267 15.5426 74.3267 19.3412C74.3267 23.1015 76.8501 25.5954 80.5589 25.5954C82.7001 25.5954 84.4588 24.6363 85.9118 23.5236L87.747 26.3628C85.5677 28.2429 82.8148 29.2022 80.1384 29.2022C74.2503 29.2022 69.7769 25.5954 69.7769 19.3412V19.3412Z" fill="#121212"/>
<path d="M91.9525 19.3412C91.9525 13.0487 96.4641 9.44189 101.396 9.44189C106.329 9.44189 110.84 13.0487 110.84 19.3412C110.84 25.5954 106.329 29.2023 101.396 29.2023C96.4641 29.2023 91.9525 25.5954 91.9525 19.3412V19.3412ZM106.29 19.3412C106.29 15.5426 104.455 13.0487 101.396 13.0487C98.3377 13.0487 96.5024 15.5426 96.5024 19.3412C96.5024 23.1015 98.3376 25.5954 101.396 25.5954C104.455 25.5954 106.29 23.1015 106.29 19.3412Z" fill="#121212"/>
<path d="M114.625 9.90245H118.028L118.372 12.2812H118.487C119.29 10.6698 120.475 9.44202 122.654 9.44202C124.375 9.44202 125.56 10.5163 126.057 12.5884C126.937 10.7465 128.16 9.44202 130.34 9.44202C132.978 9.44202 134.507 11.629 134.507 15.3894V28.742H130.263V15.6962C130.263 14.0464 129.804 13.2021 128.772 13.2021C127.739 13.2021 127.166 14.0079 126.401 15.5811V28.7419H122.731V15.6962C122.731 14.0464 122.31 13.2021 121.24 13.2021C120.245 13.2021 119.596 14.0079 118.907 15.5811V28.7419H114.625V9.90245H114.625Z" fill="#121212"/>
<path d="M137.833 19.3412C137.833 13.0487 142.345 9.44189 147.277 9.44189C152.209 9.44189 156.721 13.0487 156.721 19.3412C156.721 25.5954 152.209 29.2023 147.277 29.2023C142.344 29.2023 137.833 25.5954 137.833 19.3412V19.3412ZM152.171 19.3412C152.171 15.5426 150.336 13.0487 147.277 13.0487C144.218 13.0487 142.383 15.5426 142.383 19.3412C142.383 23.1015 144.218 25.5954 147.277 25.5954C150.336 25.5954 152.171 23.1015 152.171 19.3412Z" fill="#121212"/>
<path d="M50.8414 40.4123V43.9011H58.9889V59.249H63.3839V40.4122H50.8414V40.4123Z" fill="#121212"/>
<path d="M63.9949 34.0042C63.9949 35.8079 62.6586 36.959 60.8612 36.959C59.0638 36.959 57.7236 35.8079 57.7236 34.0042C57.7236 32.24 59.0638 31.0098 60.8612 31.0098C62.6586 31.0098 63.9949 32.24 63.9949 34.0042V34.0042Z" fill="#B00020"/>
<path d="M69.789 56.7949L71.7007 53.9939C73.9565 55.4904 76.5182 56.3729 79.577 56.3729C82.1768 56.3729 83.4003 55.3753 83.4003 54.1091C83.4003 52.8812 82.5592 52.1905 78.2005 51.2696C73.1918 50.2338 70.9359 48.4304 70.9359 45.5909C70.9359 42.2912 73.9183 39.9507 79.1945 39.9507C82.2915 39.9507 85.121 41.1785 87.0327 42.4448L85.0062 45.1689C83.1709 43.9795 81.0299 43.2888 78.8123 43.2888C76.327 43.2888 75.3329 44.2097 75.3329 45.3607C75.3329 46.7036 76.7476 47.1641 80.2269 47.9315C86.2298 49.2744 87.7974 50.886 87.7974 53.8788C87.7974 57.1018 84.7005 59.711 79.0034 59.711C75.4858 59.711 72.1212 58.3681 69.7889 56.7949H69.789Z" fill="#121212"/>
<path d="M93.1753 40.4123V43.9011H101.319V59.249H105.718V40.4122H93.1753V40.4123Z" fill="#121212"/>
<path d="M106.329 34.0042C106.329 35.8079 104.992 36.959 103.195 36.959C101.398 36.959 100.057 35.8079 100.057 34.0042C100.057 32.24 101.398 31.0098 103.195 31.0098C104.992 31.0098 106.329 32.24 106.329 34.0042V34.0042Z" fill="#B00020"/>
<path d="M118.987 51.6534V43.9026H113.978V40.6029L119.178 40.4111L119.752 34.5022H123.384V40.4111H131.949V43.9026H123.384V51.6534C123.384 54.7613 124.531 56.1809 127.743 56.1809C129.31 56.1809 130.61 55.874 131.834 55.4135L132.675 58.6365C130.992 59.2121 129.119 59.711 126.672 59.711C120.937 59.711 118.987 56.488 118.987 51.6534V51.6534Z" fill="#121212"/>
<path d="M139.348 54.1856C139.348 49.965 143.057 47.8547 152.31 47.2025C152.157 45.0921 150.895 43.519 147.836 43.519C145.733 43.519 143.631 44.4399 141.68 45.5141L140.075 42.5598C142.331 41.2168 145.427 39.9506 148.639 39.9506C153.839 39.9506 156.707 42.8282 156.707 48.0849V59.2505H153.112L152.768 56.9099H152.654C150.666 58.4447 148.142 59.711 145.619 59.711C141.948 59.711 139.348 57.4855 139.348 54.1856ZM152.31 53.9554V49.965C145.581 50.4255 143.592 51.8068 143.592 53.8403C143.592 55.5286 145.084 56.2577 146.957 56.2577C148.831 56.2577 150.589 55.3368 152.31 53.9554Z" fill="#121212"/>
<path d="M164.435 64.8526C167.647 63.5479 169.253 61.6296 169.329 58.9437C169.138 58.982 168.985 58.982 168.794 58.982C166.882 58.982 165.2 57.7926 165.2 55.5671C165.2 53.4568 166.882 52.1523 168.87 52.1523C171.585 52.1523 173 54.3393 173 57.9077C173 62.5888 170.324 65.9269 165.582 67.5001L164.435 64.8526H164.435ZM164.894 42.79C164.894 40.5645 166.5 38.9147 168.679 38.9147C170.858 38.9147 172.464 40.5645 172.464 42.79C172.464 45.0154 170.859 46.6654 168.679 46.6654C166.5 46.6654 164.894 45.0156 164.894 42.79Z" fill="#B00020"/>
</g>
<defs>
<clipPath id="clip0_504_50">
<rect width="173" height="67.0001" fill="white" transform="translate(0 0.5)"/>
</clipPath>
</defs>
</svg>
