<svg width="30" height="31" viewBox="0 0 30 31" fill="none" xmlns="http://www.w3.org/2000/svg">
<path fill-rule="evenodd" clip-rule="evenodd" d="M14.9553 0.5C6.68541 0.5 0 7.375 0 15.8803C0 22.6791 4.28357 28.4341 10.226 30.4709C10.969 30.6241 11.2411 30.14 11.2411 29.7328C11.2411 29.3762 11.2166 28.1541 11.2166 26.8806C7.05643 27.7975 6.1901 25.0472 6.1901 25.0472C5.52153 23.2647 4.53092 22.8066 4.53092 22.8066C3.16929 21.8644 4.6301 21.8644 4.6301 21.8644C6.14051 21.9662 6.93306 23.4431 6.93306 23.4431C8.2699 25.7856 10.4241 25.1237 11.2907 24.7162C11.4144 23.7231 11.8108 23.0356 12.2317 22.6537C8.91367 22.2972 5.42265 20.9731 5.42265 15.0653C5.42265 13.3847 6.01653 12.0097 6.95755 10.9403C6.80908 10.5584 6.28898 8.97937 7.10633 6.86594C7.10633 6.86594 8.36908 6.45844 11.2163 8.44469C12.4353 8.10802 13.6925 7.93675 14.9553 7.93531C16.2181 7.93531 17.5053 8.11375 18.694 8.44469C21.5415 6.45844 22.8043 6.86594 22.8043 6.86594C23.6216 8.97937 23.1012 10.5584 22.9528 10.9403C23.9186 12.0097 24.488 13.3847 24.488 15.0653C24.488 20.9731 20.9969 22.2716 17.6541 22.6537C18.199 23.1375 18.6692 24.0541 18.6692 25.5056C18.6692 27.5681 18.6447 29.2234 18.6447 29.7325C18.6447 30.14 18.9171 30.6241 19.6598 30.4712C25.6022 28.4337 29.8858 22.6791 29.8858 15.8803C29.9103 7.375 23.2004 0.5 14.9553 0.5Z" fill="black"/>
</svg>
